# xmcd
#
# Track frame offsets: 
#        150
#        18022
#        37080
#        69339
#        92885
#        110547
#        137352
#        167376
#        184194
#        216745
#        242722
#        268031
#
# Disc length: 3946 seconds
#
# Revision: 0
# Processed by: cddbd v1.5.2PL0 Copyright (c) Steve Scherf et al.
# Submitted via: ExactAudioCopyFreeDBPlugin 1.0
#
DISCID=a50f680c
DTITLE=Jimmy LaFave - Trail Two
DYEAR=2013
DGENRE=Americana
TTITLE0=Buckets of Rain
TTITLE1=River Road
TTITLE2=Key to the Highway
TTITLE3=Last Train
TTITLE4=Never Be Mine
TTITLE5=Tore Down
TTITLE6=Not Dark yet
TTITLE7=Oklahoma Hills
TTITLE8=Your Bright Baby Blues
TTITLE9=Don't Go To Strangers
TTITLE10=Never is a Moment
TTITLE11=I'm Ready
EXTD=
EXTT0=
EXTT1=
EXTT2=
EXTT3=
EXTT4=
EXTT5=
EXTT6=
EXTT7=
EXTT8=
EXTT9=
EXTT10=
EXTT11=
PLAYORDER=
